<?xml version="1.0" encoding="utf-8"?>
<!-- Generator: Adobe Illustrator 25.2.0, SVG Export Plug-In . SVG Version: 6.00 Build 0)  -->
<svg version="1.1" id="Camada_1" xmlns="http://www.w3.org/2000/svg" xmlns:xlink="http://www.w3.org/1999/xlink" x="0px" y="0px"
	 viewBox="0 0 250 90" enable-background="new 0 0 250 90" xml:space="preserve">
<circle cx="44.9" cy="45.5" r="34.5"/>
<path fill="#00FFCC" d="M44.9,4.1C22,4.1,3.4,22.7,3.4,45.6S22,87,44.9,87s41.5-18.6,41.5-41.5S67.8,4.1,44.9,4.1z M67.2,70.6
	c-1,0.9-2.3,1.4-3.6,1.4c-1.5,0-3-0.6-4.1-1.8L44.9,53.6L30.2,70.2c-2,2.2-5.4,2.5-7.7,0.5c-2.2-2-2.5-5.4-0.5-7.7l18.7-21.2
	c1-1.2,2.5-1.8,4.1-1.8s3,0.7,4.1,1.8L67.7,63C69.7,65.2,69.5,68.7,67.2,70.6z M67.2,46.7c-1,0.9-2.3,1.4-3.6,1.4
	c-1.5,0-3-0.6-4.1-1.8L44.9,29.7L30.2,46.3c-2,2.2-5.4,2.5-7.7,0.5c-2.2-2-2.5-5.4-0.5-7.7l18.7-21.2c1-1.2,2.5-1.8,4.1-1.8
	s3,0.7,4.1,1.8l18.7,21.2C69.7,41.3,69.5,44.7,67.2,46.7z"/>
<g>
	<path d="M126.8,53.8h3.8l-1.2,5.1h-9.5l0.9-3.5c-3.7,2.7-7,4-9.9,4c-2.2,0-3.9-0.7-5.2-2.1c-1.3-1.4-1.9-2.9-1.9-4.6
		c0-1.2,0.3-3.3,1-6.2l3-12.8h-3.7l1.2-5.1h9.4L110.8,45c-0.8,3.3-1.2,5.3-1.2,6.1c0,0.9,0.3,1.6,0.9,2.2s1.4,0.8,2.3,0.8
		c2.2,0,5.3-1.5,9.3-4.4l3.8-16h-4.5l1.2-5.1h10.2L126.8,53.8z"/>
	<path d="M141,67.4h4.7l-1.2,5.1h-14l1.2-5.1h3.6l8-33.7H139l1.2-5.1h10l-0.9,3.8c3.1-2.9,6.5-4.3,10.1-4.3c3.4,0,6.3,1.3,8.6,3.8
		s3.5,5.8,3.5,9.8c0,4.8-1.6,9-4.9,12.6c-3.2,3.6-7.2,5.4-11.8,5.4c-4.5,0-8.1-1.7-10.8-5.2L141,67.4z M146.1,46.7
		c0,2.6,0.7,4.6,2.2,6s3.4,2.2,5.7,2.2c3.4,0,6.2-1.3,8.4-4s3.3-5.7,3.3-9.2c0-2.6-0.7-4.7-2.2-6.1c-1.5-1.4-3.4-2.2-5.7-2.2
		c-3.4,0-6.1,1.4-8.3,4.3C147.2,40.5,146.1,43.5,146.1,46.7z"/>
	<path d="M204.3,53.8h4.2l-1.2,5.1h-9.8l0.9-3.7c-2.9,2.8-6.2,4.2-10.1,4.2c-3.7,0-6.7-1.3-8.9-3.8s-3.3-5.8-3.3-9.7
		c0-4.8,1.7-9,5-12.6s7.2-5.5,11.7-5.5c4.3,0,7.9,1.8,10.8,5.4l3-12.7h-4.7l1.2-5.1h10.3L204.3,53.8z M181.9,45.8
		c0,2.6,0.7,4.6,2.2,6.2c1.4,1.6,3.3,2.4,5.7,2.4c3.2,0,5.9-1.4,8.2-4.1c2.3-2.7,3.4-5.9,3.4-9.5c0-2.6-0.8-4.6-2.4-5.9
		c-1.6-1.3-3.5-2-5.7-2c-3.1,0-5.8,1.3-8.1,4C183,39.5,181.9,42.5,181.9,45.8z"/>
	<path d="M214.7,46.7c0-3.1,0.7-6.1,2.2-8.9c1.5-2.9,3.6-5.2,6.5-7.1s6.2-2.8,9.8-2.8c4.2,0,7.4,1.2,9.7,3.7s3.4,5.6,3.4,9.3
		c0,3-0.7,6-2.2,9.1c-1.4,3.1-3.7,5.5-6.7,7.3c-3,1.7-6.2,2.6-9.5,2.6c-3.9,0-7.1-1.2-9.5-3.5S214.7,50.8,214.7,46.7z M221,46.1
		c0,5.5,2.5,8.2,7.6,8.2c3.5,0,6.4-1.4,8.5-4.1c2.1-2.7,3.2-5.9,3.2-9.4c0-2.3-0.7-4.1-2.2-5.5s-3.4-2.1-5.8-2.1
		c-3.4,0-6.2,1.3-8.2,3.9C222.1,39.8,221,42.8,221,46.1z"/>
</g>
</svg>
