<svg xmlns="http://www.w3.org/2000/svg" xmlns:xlink="http://www.w3.org/1999/xlink" id="Camada_2" data-name="Camada 2" viewBox="0 0 92.64 82.97"><defs><style> .cls-1 { fill: #78bb60; } .cls-1, .cls-2, .cls-3, .cls-4 { stroke-width: 0px; } .cls-1, .cls-3 { fill-rule: evenodd; } .cls-2 { fill: none; } .cls-5 { clip-path: url(#clippath-1); } .cls-3 { fill: #0b4693; } .cls-4 { fill: #706f6f; } .cls-6 { clip-path: url(#clippath); } </style><clipPath id="clippath"><rect class="cls-2" width="92.64" height="82.97"></rect></clipPath><clipPath id="clippath-1"><rect class="cls-2" y="0" width="92.64" height="82.97"></rect></clipPath></defs><g id="Camada_1-2" data-name="Camada 1"><g id="Arte_7" data-name="Arte 7"><g class="cls-6"><g class="cls-5"><path class="cls-3" d="m89.39,44.77c-2.17-2.2-5.12-3.3-8.87-3.3-3.37,0-6.23,1.18-8.57,3.52-2.35,2.34-3.53,5.2-3.53,8.56s1.16,6.34,3.49,8.64c2.33,2.29,5.23,3.45,8.72,3.45.59,0,1.24-.06,1.95-.17v-9.01c-.64.41-1.35.6-2.1.6-.92,0-1.69-.31-2.29-.93-.6-.62-.9-1.41-.9-2.37s.34-1.7.99-2.37,1.45-1,2.35-1c1,0,1.8.36,2.39,1.09.59.73.89,1.71.89,2.93v10.76c.08,5.83,8.81,6.25,8.72,0v-11.39c0-3.8-1.08-6.81-3.24-9.01m-25.33,11.58c-1.54,0-2.61-.35-3.19-1.05-.58-.7-.87-1.97-.87-3.81,6.25,0,6.25-9.2,0-9.2v-8.91c.01-5.59-8.73-5.46-8.72,0v19.09c0,3.3.66,5.95,2,7.95,1.05,1.57,2.45,2.8,4.2,3.72,1.74.91,3.6,1.37,5.57,1.37.21,0,.55,0,1,0,4.96-.99,4.23-9.23,0-9.14m-48.88-11.8l-1.05,3.18-6.61-15.72c-2.33-5.77-9.17-2.33-7.08,2.39,3.49,8.05,10.1,23.64,13.58,31.69l7.89-17.88.52-1.63c1.53-4.85-5.97-6.86-7.25-2.03m33.78,8.78c0-3.36-1.14-6.18-3.44-8.47-2.29-2.3-5.12-3.44-8.49-3.44s-6.35,1.18-8.73,3.52c-2.37,2.34-3.55,5.22-3.55,8.62s1.17,6.28,3.52,8.61c2.35,2.31,5.24,3.47,8.69,3.47,2.83,0,5.4-.91,7.71-2.73,3.34-3.59-1.34-9.01-4.96-5.97-.8.87-1.64,1.31-2.51,1.31-1.07,0-1.94-.47-2.6-1.4-.39-.55-.66-1.19-.81-1.93l15.07.04c.07-.75.11-1.29.11-1.63m-14.97-2.51c.16-.44.37-.84.64-1.19.68-.93,1.57-1.39,2.65-1.39,1.63,0,2.6.87,2.91,2.62l-6.2-.04Z"></path><path class="cls-1" d="m8.85,0c3.56,8.22,10.31,24.14,13.87,32.36,2.13,4.82-4.85,8.33-7.23,2.44l-6.75-16.05-1.08,3.25c-1.3,4.93-8.96,2.88-7.4-2.08l.53-1.66L8.85,0Z"></path><path class="cls-4" d="m0,81.56v-4.24h1.84c.38,0,.71.06.98.18.27.12.49.3.64.53.15.23.22.5.22.82s-.07.59-.22.82c-.15.23-.36.41-.64.53-.27.12-.6.18-.98.18H.55l.44-.44v1.61H0Zm.98-1.5l-.44-.47h1.24c.3,0,.53-.06.68-.19.15-.13.22-.31.22-.54s-.07-.42-.22-.55c-.15-.13-.38-.19-.68-.19H.55l.44-.47v2.4Z"></path><path class="cls-4" d="m9.4,81.64c-.34,0-.65-.05-.93-.16-.28-.11-.53-.26-.74-.46-.21-.2-.37-.43-.48-.7-.12-.27-.17-.56-.17-.87s.06-.61.17-.87c.12-.27.28-.5.49-.7.21-.2.46-.35.74-.46.28-.11.59-.16.92-.16s.64.05.92.16c.28.11.52.26.73.46.21.2.37.43.49.69.12.26.18.56.18.88s-.06.61-.18.88c-.12.27-.28.5-.49.7-.21.2-.45.35-.73.46-.28.11-.59.16-.92.16m0-.84c.19,0,.36-.03.52-.1.16-.06.3-.16.42-.28.12-.12.22-.26.28-.43.07-.17.1-.35.1-.55s-.03-.39-.1-.55c-.07-.17-.16-.31-.28-.43-.12-.12-.26-.21-.42-.28-.16-.06-.34-.1-.53-.1s-.36.03-.52.1c-.16.06-.3.16-.42.28-.12.12-.21.26-.28.43-.07.17-.1.35-.1.55s.03.38.1.55c.07.17.16.31.28.43.12.12.26.21.42.28.16.06.34.1.53.1m-.55-3.82l.82-.87h1.02l-1.1.87h-.74Z"></path><path class="cls-4" d="m16.75,81.64c-.34,0-.66-.05-.98-.14-.31-.09-.56-.21-.75-.35l.33-.74c.18.13.4.24.65.32.25.08.5.12.75.12.19,0,.35-.02.47-.06.12-.04.21-.09.26-.16.06-.07.08-.15.08-.24,0-.11-.04-.2-.13-.27-.09-.07-.21-.12-.35-.16-.15-.04-.31-.08-.48-.12-.18-.04-.35-.09-.53-.14-.18-.06-.34-.13-.48-.22-.15-.09-.26-.21-.35-.35-.09-.15-.14-.33-.14-.56,0-.24.07-.46.2-.66.13-.2.33-.36.59-.48.26-.12.6-.18,1-.18.27,0,.53.03.79.09.26.06.49.16.68.28l-.3.74c-.2-.11-.4-.2-.59-.25-.2-.05-.39-.08-.58-.08s-.35.02-.47.07c-.12.04-.21.1-.26.17-.05.07-.08.15-.08.25,0,.11.04.2.13.26.09.07.21.12.35.16.15.04.31.08.48.12.18.04.35.09.53.14.18.05.34.12.48.21.15.09.26.21.35.35.09.15.14.33.14.55,0,.24-.07.46-.2.65-.13.2-.33.36-.6.48-.26.12-.6.18-1,.18"></path><rect class="cls-4" x="22.03" y="79.48" width="1.71" height=".76"></rect><path class="cls-4" d="m29.53,81.64c-.34,0-.64-.05-.92-.16-.28-.11-.52-.26-.73-.46-.21-.2-.37-.43-.48-.7-.12-.27-.17-.56-.17-.88s.06-.61.17-.88c.12-.27.28-.5.49-.7.21-.2.46-.35.74-.46.28-.11.59-.16.93-.16.38,0,.71.06,1.01.19.3.13.55.31.76.55l-.63.58c-.15-.16-.32-.28-.5-.36-.18-.08-.38-.12-.59-.12s-.39.03-.56.1c-.17.06-.32.16-.44.28-.12.12-.22.26-.28.43-.07.17-.1.35-.1.55s.03.38.1.55c.07.17.16.31.28.43.12.12.27.22.44.28.17.06.35.1.55.1s.38-.03.57-.09c.18-.06.36-.17.54-.32l.56.71c-.23.17-.5.31-.8.4-.3.09-.61.14-.91.14m.82-.67v-1.59h.9v1.72l-.9-.13Z"></path><path class="cls-4" d="m35.06,81.56v-4.24h1.84c.38,0,.71.06.98.18.27.12.49.3.64.53.15.23.22.5.22.82s-.07.59-.22.81c-.15.23-.36.4-.64.52-.27.12-.6.18-.98.18h-1.29l.44-.43v1.61h-.98Zm.98-1.5l-.44-.46h1.24c.3,0,.53-.07.68-.2.15-.13.22-.31.22-.54s-.07-.42-.22-.55c-.15-.13-.38-.19-.68-.19h-1.24l.44-.47v2.4Zm1.71,1.5l-1.06-1.54h1.05l1.07,1.54h-1.06Z"></path><path class="cls-4" d="m41.86,81.56l1.89-4.24h.97l1.9,4.24h-1.03l-1.55-3.74h.39l-1.56,3.74h-1.01Zm.94-.91l.26-.74h2.18l.27.74h-2.71Z"></path><path class="cls-4" d="m49.97,81.56v-4.24h1.93c.46,0,.87.09,1.22.26.35.18.63.42.82.74.2.31.3.69.3,1.12s-.1.8-.3,1.12c-.2.32-.47.56-.82.74-.35.18-.76.26-1.22.26h-1.93Zm.98-.81h.9c.28,0,.53-.05.74-.16.21-.11.37-.26.48-.46.12-.2.17-.43.17-.7s-.06-.5-.17-.7c-.12-.2-.28-.35-.48-.45-.21-.11-.45-.16-.74-.16h-.9v2.63Z"></path><path class="cls-4" d="m59.76,81.64c-.6,0-1.07-.17-1.41-.5-.34-.34-.51-.81-.51-1.44v-2.37h.98v2.34c0,.4.08.69.25.87.17.18.4.27.7.27s.53-.09.7-.27c.17-.18.25-.47.25-.87v-2.34h.97v2.37c0,.62-.17,1.1-.51,1.44-.34.34-.81.5-1.41.5"></path><path class="cls-4" d="m64.91,81.56l1.89-4.24h.97l1.9,4.24h-1.03l-1.55-3.74h.39l-1.56,3.74h-1.01Zm.94-.91l.26-.74h2.18l.27.74h-2.71Z"></path><path class="cls-4" d="m74.98,81.64c-.33,0-.63-.05-.91-.16-.28-.11-.52-.26-.73-.46-.21-.2-.37-.43-.48-.7-.12-.27-.17-.56-.17-.88s.06-.61.17-.88c.12-.27.28-.5.48-.7.21-.2.45-.35.73-.46.28-.11.58-.16.91-.16.37,0,.7.06,1,.19s.55.31.75.56l-.63.58c-.15-.17-.31-.29-.48-.37-.18-.08-.37-.12-.58-.12-.2,0-.38.03-.55.1-.17.06-.31.16-.43.28s-.21.26-.28.43c-.07.17-.1.35-.1.55s.03.39.1.55c.07.17.16.31.28.43s.26.21.43.28c.17.06.35.1.55.1.21,0,.4-.04.58-.12.18-.08.34-.21.48-.38l.63.58c-.2.25-.45.43-.75.56-.3.13-.63.19-1,.19m-.33,1.33c-.11,0-.21-.01-.31-.04-.1-.02-.18-.05-.26-.09l.15-.41c.06.03.12.05.19.07.06.02.13.02.21.02.11,0,.19-.02.24-.05.05-.04.07-.08.07-.14,0-.05-.02-.09-.07-.13-.05-.03-.12-.05-.23-.05h-.21l.16-.64h.5l-.08.35c.18.02.31.08.4.17.08.09.13.2.13.33,0,.18-.08.33-.24.44-.16.11-.38.16-.65.16"></path><path class="cls-4" d="m79.66,81.56l1.89-4.24h.97l1.9,4.24h-1.03l-1.55-3.74h.39l-1.56,3.74h-1.01Zm.94-.91l.26-.74h2.18l.27.74h-2.71Zm1.88-3.66c-.11,0-.2-.02-.28-.06-.08-.04-.15-.08-.22-.13-.06-.05-.13-.09-.18-.13-.06-.04-.11-.06-.17-.06-.08,0-.15.03-.2.09-.05.06-.08.14-.09.25h-.48c0-.27.07-.49.2-.65.13-.16.29-.24.51-.24.1,0,.2.02.28.06.08.04.15.08.22.14.07.05.13.1.18.14.06.04.11.06.16.06.08,0,.15-.03.21-.09.05-.06.08-.14.08-.24h.48c0,.26-.07.47-.2.63-.13.16-.3.24-.51.24"></path><path class="cls-4" d="m89.76,81.64c-.34,0-.65-.05-.93-.16-.28-.11-.53-.26-.74-.46-.21-.2-.37-.43-.48-.7-.12-.27-.17-.56-.17-.87s.06-.61.17-.87c.12-.27.28-.5.49-.7.21-.2.46-.35.74-.46.28-.11.59-.16.92-.16s.64.05.92.16c.28.11.52.26.73.46.21.2.37.43.49.69.12.26.18.56.18.88s-.06.61-.18.88c-.12.27-.28.5-.49.7-.21.2-.45.35-.73.46-.28.11-.59.16-.92.16m0-.84c.19,0,.36-.03.52-.1.16-.06.3-.16.42-.28.12-.12.22-.26.28-.43.07-.17.1-.35.1-.55s-.03-.39-.1-.55c-.07-.17-.16-.31-.28-.43-.12-.12-.26-.21-.42-.28-.16-.06-.34-.1-.53-.1s-.36.03-.52.1c-.16.06-.3.16-.42.28-.12.12-.22.26-.28.43-.07.17-.1.35-.1.55s.03.38.1.55c.07.17.16.31.28.43.12.12.26.21.42.28.16.06.34.1.53.1"></path></g></g></g></g></svg>